<mxfile host="app.diagrams.net" agent="Mozilla/5.0 (Windows NT 10.0; Win64; x64) AppleWebKit/537.36 (KHTML, like Gecko) Chrome/141.0.0.0 Safari/537.36" version="28.2.5">
  <diagram name="Halaman-1" id="Wah2RG2rlefB9ttDup7v">
    <mxGraphModel dx="1774" dy="511" grid="1" gridSize="10" guides="1" tooltips="1" connect="1" arrows="1" fold="1" page="1" pageScale="1" pageWidth="827" pageHeight="1169" background="light-dark(#ffffff, #884d25)" math="0" shadow="0">
      <root>
        <mxCell id="0" />
        <mxCell id="1" parent="0" />
        <mxCell id="xa8BqAHAmbt2sgXt1oeg-5" value="" style="edgeStyle=orthogonalEdgeStyle;rounded=1;orthogonalLoop=1;jettySize=auto;html=1;labelBackgroundColor=none;strokeColor=#09555B;fontColor=default;" edge="1" parent="1" source="xa8BqAHAmbt2sgXt1oeg-1" target="xa8BqAHAmbt2sgXt1oeg-2">
          <mxGeometry relative="1" as="geometry" />
        </mxCell>
        <mxCell id="xa8BqAHAmbt2sgXt1oeg-1" value="START" style="ellipse;whiteSpace=wrap;html=1;labelBackgroundColor=none;fillColor=#FAD9D5;strokeColor=#D0CEE2;fontColor=#1A1A1A;rounded=1;" vertex="1" parent="1">
          <mxGeometry x="354" y="10" width="120" height="80" as="geometry" />
        </mxCell>
        <mxCell id="xa8BqAHAmbt2sgXt1oeg-4" value="" style="edgeStyle=orthogonalEdgeStyle;rounded=1;orthogonalLoop=1;jettySize=auto;html=1;labelBackgroundColor=none;strokeColor=#09555B;fontColor=default;" edge="1" parent="1" source="xa8BqAHAmbt2sgXt1oeg-2">
          <mxGeometry relative="1" as="geometry">
            <mxPoint x="414" y="310" as="targetPoint" />
          </mxGeometry>
        </mxCell>
        <mxCell id="xa8BqAHAmbt2sgXt1oeg-2" value="Validasi login" style="rounded=1;whiteSpace=wrap;html=1;labelBackgroundColor=none;fillColor=#FAD9D5;strokeColor=#D0CEE2;fontColor=#1A1A1A;" vertex="1" parent="1">
          <mxGeometry x="354" y="160" width="120" height="60" as="geometry" />
        </mxCell>
        <mxCell id="xa8BqAHAmbt2sgXt1oeg-12" value="" style="edgeStyle=orthogonalEdgeStyle;rounded=1;orthogonalLoop=1;jettySize=auto;html=1;labelBackgroundColor=none;strokeColor=#09555B;fontColor=default;" edge="1" parent="1" target="xa8BqAHAmbt2sgXt1oeg-11">
          <mxGeometry relative="1" as="geometry">
            <mxPoint x="414" y="370" as="sourcePoint" />
          </mxGeometry>
        </mxCell>
        <mxCell id="xa8BqAHAmbt2sgXt1oeg-9" value="" style="edgeStyle=orthogonalEdgeStyle;rounded=1;orthogonalLoop=1;jettySize=auto;html=1;labelBackgroundColor=none;strokeColor=#09555B;fontColor=default;" edge="1" parent="1" source="xa8BqAHAmbt2sgXt1oeg-6" target="xa8BqAHAmbt2sgXt1oeg-8">
          <mxGeometry relative="1" as="geometry" />
        </mxCell>
        <mxCell id="xa8BqAHAmbt2sgXt1oeg-6" value="&lt;div&gt;&lt;span style=&quot;background-color: transparent; color: light-dark(rgb(0, 0, 0), rgb(255, 255, 255));&quot;&gt;PERCOBAAN &amp;lt; LIMIT&lt;/span&gt;&lt;/div&gt;" style="rhombus;whiteSpace=wrap;html=1;rounded=1;labelBackgroundColor=none;fillColor=#FAD9D5;strokeColor=#D0CEE2;fontColor=#1A1A1A;" vertex="1" parent="1">
          <mxGeometry x="1010" y="475" width="176" height="100" as="geometry" />
        </mxCell>
        <mxCell id="xa8BqAHAmbt2sgXt1oeg-8" value="AKSES&amp;nbsp; DITOLAK&lt;div&gt;(END)&lt;/div&gt;" style="whiteSpace=wrap;html=1;rounded=1;labelBackgroundColor=none;fillColor=#FAD9D5;strokeColor=#D0CEE2;fontColor=#1A1A1A;" vertex="1" parent="1">
          <mxGeometry x="1038" y="649" width="120" height="60" as="geometry" />
        </mxCell>
        <mxCell id="xa8BqAHAmbt2sgXt1oeg-14" value="" style="edgeStyle=orthogonalEdgeStyle;rounded=1;orthogonalLoop=1;jettySize=auto;html=1;labelBackgroundColor=none;strokeColor=#09555B;fontColor=default;" edge="1" parent="1" source="xa8BqAHAmbt2sgXt1oeg-11">
          <mxGeometry relative="1" as="geometry">
            <mxPoint x="600" y="525" as="targetPoint" />
          </mxGeometry>
        </mxCell>
        <mxCell id="xa8BqAHAmbt2sgXt1oeg-20" value="" style="edgeStyle=orthogonalEdgeStyle;rounded=1;orthogonalLoop=1;jettySize=auto;html=1;labelBackgroundColor=none;strokeColor=#09555B;fontColor=default;" edge="1" parent="1" source="xa8BqAHAmbt2sgXt1oeg-11">
          <mxGeometry relative="1" as="geometry">
            <mxPoint x="204" y="525" as="targetPoint" />
          </mxGeometry>
        </mxCell>
        <mxCell id="xa8BqAHAmbt2sgXt1oeg-11" value="USERNAME, PASSWORD&lt;div&gt;BENAR&lt;/div&gt;" style="rhombus;whiteSpace=wrap;html=1;rounded=1;labelBackgroundColor=none;fillColor=#FAD9D5;strokeColor=#D0CEE2;fontColor=#1A1A1A;" vertex="1" parent="1">
          <mxGeometry x="319" y="470" width="190" height="110" as="geometry" />
        </mxCell>
        <mxCell id="xa8BqAHAmbt2sgXt1oeg-15" value="" style="edgeStyle=orthogonalEdgeStyle;rounded=1;orthogonalLoop=1;jettySize=auto;html=1;labelBackgroundColor=none;strokeColor=#09555B;fontColor=default;" edge="1" parent="1" source="xa8BqAHAmbt2sgXt1oeg-13" target="xa8BqAHAmbt2sgXt1oeg-6">
          <mxGeometry relative="1" as="geometry" />
        </mxCell>
        <mxCell id="xa8BqAHAmbt2sgXt1oeg-13" value="PERCOBAAN +=1" style="whiteSpace=wrap;html=1;rounded=1;labelBackgroundColor=none;fillColor=#FAD9D5;strokeColor=#D0CEE2;fontColor=#1A1A1A;" vertex="1" parent="1">
          <mxGeometry x="820" y="495" width="120" height="60" as="geometry" />
        </mxCell>
        <mxCell id="xa8BqAHAmbt2sgXt1oeg-16" value="NO" style="text;html=1;align=center;verticalAlign=middle;resizable=0;points=[];autosize=1;strokeColor=none;fillColor=none;labelBackgroundColor=none;fontColor=#1A1A1A;rounded=1;" vertex="1" parent="1">
          <mxGeometry x="530" y="495" width="40" height="30" as="geometry" />
        </mxCell>
        <mxCell id="xa8BqAHAmbt2sgXt1oeg-18" value="NO" style="text;html=1;align=center;verticalAlign=middle;resizable=0;points=[];autosize=1;strokeColor=none;fillColor=none;labelBackgroundColor=none;fontColor=#1A1A1A;rounded=1;" vertex="1" parent="1">
          <mxGeometry x="1060" y="585" width="40" height="30" as="geometry" />
        </mxCell>
        <mxCell id="xa8BqAHAmbt2sgXt1oeg-21" value="YES" style="text;html=1;align=center;verticalAlign=middle;resizable=0;points=[];autosize=1;strokeColor=none;fillColor=none;labelBackgroundColor=none;fontColor=#1A1A1A;rounded=1;" vertex="1" parent="1">
          <mxGeometry x="240" y="495" width="50" height="30" as="geometry" />
        </mxCell>
        <mxCell id="xa8BqAHAmbt2sgXt1oeg-25" value="" style="endArrow=classic;html=1;rounded=1;entryX=1;entryY=0.5;entryDx=0;entryDy=0;labelBackgroundColor=none;strokeColor=#09555B;fontColor=default;" edge="1" parent="1" target="xa8BqAHAmbt2sgXt1oeg-29">
          <mxGeometry width="50" height="50" relative="1" as="geometry">
            <mxPoint x="1098.5" y="475" as="sourcePoint" />
            <mxPoint x="760" y="340" as="targetPoint" />
            <Array as="points">
              <mxPoint x="1098" y="340" />
            </Array>
          </mxGeometry>
        </mxCell>
        <mxCell id="xa8BqAHAmbt2sgXt1oeg-27" value="YES" style="text;html=1;align=center;verticalAlign=middle;resizable=0;points=[];autosize=1;strokeColor=none;fillColor=none;labelBackgroundColor=none;fontColor=#1A1A1A;rounded=1;" vertex="1" parent="1">
          <mxGeometry x="1055" y="430" width="50" height="30" as="geometry" />
        </mxCell>
        <mxCell id="xa8BqAHAmbt2sgXt1oeg-29" value="Input: USERNAME, PASSWORD" style="shape=parallelogram;perimeter=parallelogramPerimeter;whiteSpace=wrap;html=1;fixedSize=1;labelBackgroundColor=none;fillColor=#FAD9D5;strokeColor=#D0CEE2;fontColor=#1A1A1A;rounded=1;" vertex="1" parent="1">
          <mxGeometry x="309" y="310" width="210" height="60" as="geometry" />
        </mxCell>
        <mxCell id="xa8BqAHAmbt2sgXt1oeg-32" value="" style="edgeStyle=orthogonalEdgeStyle;rounded=1;orthogonalLoop=1;jettySize=auto;html=1;labelBackgroundColor=none;strokeColor=#09555B;fontColor=default;" edge="1" parent="1" source="xa8BqAHAmbt2sgXt1oeg-30" target="xa8BqAHAmbt2sgXt1oeg-31">
          <mxGeometry relative="1" as="geometry" />
        </mxCell>
        <mxCell id="xa8BqAHAmbt2sgXt1oeg-30" value="OUTPUT: LOGIN BERHASIL" style="shape=parallelogram;perimeter=parallelogramPerimeter;whiteSpace=wrap;html=1;fixedSize=1;labelBackgroundColor=none;fillColor=#FAD9D5;strokeColor=#D0CEE2;fontColor=#1A1A1A;rounded=1;" vertex="1" parent="1">
          <mxGeometry x="30" y="495" width="180" height="60" as="geometry" />
        </mxCell>
        <mxCell id="xa8BqAHAmbt2sgXt1oeg-34" value="" style="edgeStyle=orthogonalEdgeStyle;rounded=1;orthogonalLoop=1;jettySize=auto;html=1;labelBackgroundColor=none;strokeColor=#09555B;fontColor=default;" edge="1" parent="1" source="xa8BqAHAmbt2sgXt1oeg-31" target="xa8BqAHAmbt2sgXt1oeg-33">
          <mxGeometry relative="1" as="geometry" />
        </mxCell>
        <mxCell id="xa8BqAHAmbt2sgXt1oeg-31" value="OUTPUT: MENU FURNITUR&lt;div&gt;1. SOFA&lt;/div&gt;&lt;div&gt;2. MEJA BELAJAR&lt;/div&gt;&lt;div&gt;3. RAK LEMARI&lt;/div&gt;&lt;div&gt;4. KELUAR&lt;/div&gt;" style="shape=parallelogram;perimeter=parallelogramPerimeter;whiteSpace=wrap;html=1;fixedSize=1;labelBackgroundColor=none;fillColor=#FAD9D5;strokeColor=#D0CEE2;fontColor=#1A1A1A;rounded=1;" vertex="1" parent="1">
          <mxGeometry x="17.5" y="638" width="205" height="82" as="geometry" />
        </mxCell>
        <mxCell id="xa8BqAHAmbt2sgXt1oeg-36" value="" style="edgeStyle=orthogonalEdgeStyle;rounded=1;orthogonalLoop=1;jettySize=auto;html=1;labelBackgroundColor=none;strokeColor=#09555B;fontColor=default;" edge="1" parent="1" source="xa8BqAHAmbt2sgXt1oeg-33" target="xa8BqAHAmbt2sgXt1oeg-35">
          <mxGeometry relative="1" as="geometry" />
        </mxCell>
        <mxCell id="xa8BqAHAmbt2sgXt1oeg-33" value="Input: PILIH OPSI (1-4)" style="shape=parallelogram;perimeter=parallelogramPerimeter;whiteSpace=wrap;html=1;fixedSize=1;labelBackgroundColor=none;fillColor=#FAD9D5;strokeColor=#D0CEE2;fontColor=#1A1A1A;rounded=1;" vertex="1" parent="1">
          <mxGeometry x="-225" y="649" width="155" height="60" as="geometry" />
        </mxCell>
        <mxCell id="xa8BqAHAmbt2sgXt1oeg-38" value="" style="edgeStyle=orthogonalEdgeStyle;rounded=1;orthogonalLoop=1;jettySize=auto;html=1;labelBackgroundColor=none;strokeColor=#09555B;fontColor=default;" edge="1" parent="1" source="xa8BqAHAmbt2sgXt1oeg-35" target="xa8BqAHAmbt2sgXt1oeg-37">
          <mxGeometry relative="1" as="geometry" />
        </mxCell>
        <mxCell id="xa8BqAHAmbt2sgXt1oeg-41" value="" style="edgeStyle=orthogonalEdgeStyle;rounded=1;orthogonalLoop=1;jettySize=auto;html=1;labelBackgroundColor=none;strokeColor=#09555B;fontColor=default;" edge="1" parent="1" source="xa8BqAHAmbt2sgXt1oeg-35" target="xa8BqAHAmbt2sgXt1oeg-40">
          <mxGeometry relative="1" as="geometry" />
        </mxCell>
        <mxCell id="xa8BqAHAmbt2sgXt1oeg-43" value="" style="edgeStyle=orthogonalEdgeStyle;rounded=1;orthogonalLoop=1;jettySize=auto;html=1;exitX=1;exitY=0.5;exitDx=0;exitDy=0;labelBackgroundColor=none;strokeColor=#09555B;fontColor=default;" edge="1" parent="1" source="xa8BqAHAmbt2sgXt1oeg-35" target="xa8BqAHAmbt2sgXt1oeg-42">
          <mxGeometry relative="1" as="geometry">
            <Array as="points">
              <mxPoint x="-107" y="820" />
            </Array>
          </mxGeometry>
        </mxCell>
        <mxCell id="xa8BqAHAmbt2sgXt1oeg-44" value="" style="edgeStyle=orthogonalEdgeStyle;rounded=1;orthogonalLoop=1;jettySize=auto;html=1;exitX=1;exitY=0;exitDx=0;exitDy=0;entryX=0.577;entryY=-0.021;entryDx=0;entryDy=0;entryPerimeter=0;labelBackgroundColor=none;strokeColor=#09555B;fontColor=default;" edge="1" parent="1" target="xa8BqAHAmbt2sgXt1oeg-90">
          <mxGeometry relative="1" as="geometry">
            <mxPoint x="-127.5" y="802" as="sourcePoint" />
            <mxPoint x="440" y="1380" as="targetPoint" />
            <Array as="points">
              <mxPoint x="440" y="802" />
              <mxPoint x="440" y="1210" />
            </Array>
          </mxGeometry>
        </mxCell>
        <mxCell id="xa8BqAHAmbt2sgXt1oeg-35" value="OPSI?" style="rhombus;whiteSpace=wrap;html=1;labelBackgroundColor=none;fillColor=#FAD9D5;strokeColor=#D0CEE2;fontColor=#1A1A1A;rounded=1;" vertex="1" parent="1">
          <mxGeometry x="-187.5" y="779" width="80" height="80" as="geometry" />
        </mxCell>
        <mxCell id="xa8BqAHAmbt2sgXt1oeg-54" style="edgeStyle=orthogonalEdgeStyle;rounded=1;orthogonalLoop=1;jettySize=auto;html=1;exitX=0.5;exitY=1;exitDx=0;exitDy=0;entryX=0;entryY=0.5;entryDx=0;entryDy=0;labelBackgroundColor=none;strokeColor=#09555B;fontColor=default;" edge="1" parent="1" source="xa8BqAHAmbt2sgXt1oeg-37" target="xa8BqAHAmbt2sgXt1oeg-46">
          <mxGeometry relative="1" as="geometry">
            <mxPoint x="-319" y="1120" as="targetPoint" />
            <Array as="points">
              <mxPoint x="-319" y="1120" />
            </Array>
          </mxGeometry>
        </mxCell>
        <mxCell id="xa8BqAHAmbt2sgXt1oeg-37" value="SOFA -&amp;gt; Rp500.000 /unit" style="whiteSpace=wrap;html=1;labelBackgroundColor=none;fillColor=#FAD9D5;strokeColor=#D0CEE2;fontColor=#1A1A1A;rounded=1;" vertex="1" parent="1">
          <mxGeometry x="-390" y="790" width="142.5" height="60" as="geometry" />
        </mxCell>
        <mxCell id="xa8BqAHAmbt2sgXt1oeg-39" value="OPSI 1" style="text;html=1;align=center;verticalAlign=middle;resizable=0;points=[];autosize=1;strokeColor=none;fillColor=none;labelBackgroundColor=none;fontColor=#1A1A1A;rounded=1;" vertex="1" parent="1">
          <mxGeometry x="-348.75" y="759" width="60" height="30" as="geometry" />
        </mxCell>
        <mxCell id="xa8BqAHAmbt2sgXt1oeg-47" value="" style="edgeStyle=orthogonalEdgeStyle;rounded=1;orthogonalLoop=1;jettySize=auto;html=1;labelBackgroundColor=none;strokeColor=#09555B;fontColor=default;" edge="1" parent="1" source="xa8BqAHAmbt2sgXt1oeg-40" target="xa8BqAHAmbt2sgXt1oeg-46">
          <mxGeometry relative="1" as="geometry" />
        </mxCell>
        <mxCell id="xa8BqAHAmbt2sgXt1oeg-40" value="MEJA BELAJAR -&amp;gt; Rp250.000 /unit" style="whiteSpace=wrap;html=1;labelBackgroundColor=none;fillColor=#FAD9D5;strokeColor=#D0CEE2;fontColor=#1A1A1A;rounded=1;" vertex="1" parent="1">
          <mxGeometry x="-247.5" y="949" width="200" height="60" as="geometry" />
        </mxCell>
        <mxCell id="xa8BqAHAmbt2sgXt1oeg-42" value="RAK LEMARI -&amp;gt; Rp150.000 /unit" style="whiteSpace=wrap;html=1;labelBackgroundColor=none;fillColor=#FAD9D5;strokeColor=#D0CEE2;fontColor=#1A1A1A;rounded=1;" vertex="1" parent="1">
          <mxGeometry x="-50" y="810" width="190" height="60" as="geometry" />
        </mxCell>
        <mxCell id="xa8BqAHAmbt2sgXt1oeg-59" value="" style="edgeStyle=orthogonalEdgeStyle;rounded=1;orthogonalLoop=1;jettySize=auto;html=1;labelBackgroundColor=none;strokeColor=#09555B;fontColor=default;" edge="1" parent="1" source="xa8BqAHAmbt2sgXt1oeg-46" target="xa8BqAHAmbt2sgXt1oeg-58">
          <mxGeometry relative="1" as="geometry" />
        </mxCell>
        <mxCell id="xa8BqAHAmbt2sgXt1oeg-46" value="INPUT: JUMLAH UNIT" style="shape=parallelogram;perimeter=parallelogramPerimeter;whiteSpace=wrap;html=1;fixedSize=1;labelBackgroundColor=none;fillColor=#FAD9D5;strokeColor=#D0CEE2;fontColor=#1A1A1A;rounded=1;" vertex="1" parent="1">
          <mxGeometry x="-227.5" y="1089" width="160" height="60" as="geometry" />
        </mxCell>
        <mxCell id="xa8BqAHAmbt2sgXt1oeg-55" style="edgeStyle=orthogonalEdgeStyle;rounded=1;orthogonalLoop=1;jettySize=auto;html=1;entryX=1;entryY=0.5;entryDx=0;entryDy=0;labelBackgroundColor=none;strokeColor=#09555B;fontColor=default;" edge="1" parent="1" source="xa8BqAHAmbt2sgXt1oeg-42" target="xa8BqAHAmbt2sgXt1oeg-46">
          <mxGeometry relative="1" as="geometry">
            <mxPoint x="-70" y="1119" as="targetPoint" />
            <mxPoint x="30" y="900" as="sourcePoint" />
            <Array as="points">
              <mxPoint x="45" y="1119" />
            </Array>
          </mxGeometry>
        </mxCell>
        <mxCell id="xa8BqAHAmbt2sgXt1oeg-63" value="" style="edgeStyle=orthogonalEdgeStyle;rounded=1;orthogonalLoop=1;jettySize=auto;html=1;labelBackgroundColor=none;strokeColor=#09555B;fontColor=default;" edge="1" parent="1" source="xa8BqAHAmbt2sgXt1oeg-58" target="xa8BqAHAmbt2sgXt1oeg-62">
          <mxGeometry relative="1" as="geometry" />
        </mxCell>
        <mxCell id="xa8BqAHAmbt2sgXt1oeg-68" value="" style="edgeStyle=orthogonalEdgeStyle;rounded=1;orthogonalLoop=1;jettySize=auto;html=1;labelBackgroundColor=none;strokeColor=#09555B;fontColor=default;" edge="1" parent="1" source="xa8BqAHAmbt2sgXt1oeg-58" target="xa8BqAHAmbt2sgXt1oeg-67">
          <mxGeometry relative="1" as="geometry" />
        </mxCell>
        <mxCell id="xa8BqAHAmbt2sgXt1oeg-58" value="Input isinya angka semua?" style="rhombus;whiteSpace=wrap;html=1;labelBackgroundColor=none;fillColor=#FAD9D5;strokeColor=#D0CEE2;fontColor=#1A1A1A;rounded=1;" vertex="1" parent="1">
          <mxGeometry x="-217.5" y="1219" width="140" height="91" as="geometry" />
        </mxCell>
        <mxCell id="xa8BqAHAmbt2sgXt1oeg-62" value="Output: ERROR&lt;div&gt;WAJIB ANGKA!&lt;/div&gt;" style="shape=parallelogram;perimeter=parallelogramPerimeter;whiteSpace=wrap;html=1;fixedSize=1;labelBackgroundColor=none;fillColor=#FAD9D5;strokeColor=#D0CEE2;fontColor=#1A1A1A;rounded=1;" vertex="1" parent="1">
          <mxGeometry x="-430" y="1234.5" width="122.5" height="60" as="geometry" />
        </mxCell>
        <mxCell id="xa8BqAHAmbt2sgXt1oeg-64" value="NO" style="text;html=1;align=center;verticalAlign=middle;resizable=0;points=[];autosize=1;strokeColor=none;fillColor=none;labelBackgroundColor=none;fontColor=#1A1A1A;rounded=1;" vertex="1" parent="1">
          <mxGeometry x="-280" y="1238" width="40" height="30" as="geometry" />
        </mxCell>
        <mxCell id="xa8BqAHAmbt2sgXt1oeg-72" value="" style="edgeStyle=orthogonalEdgeStyle;rounded=1;orthogonalLoop=1;jettySize=auto;html=1;labelBackgroundColor=none;strokeColor=#09555B;fontColor=default;" edge="1" parent="1" source="xa8BqAHAmbt2sgXt1oeg-67" target="xa8BqAHAmbt2sgXt1oeg-71">
          <mxGeometry relative="1" as="geometry" />
        </mxCell>
        <mxCell id="xa8BqAHAmbt2sgXt1oeg-67" value="Hitung: TOTAL HARGA" style="whiteSpace=wrap;html=1;labelBackgroundColor=none;fillColor=#FAD9D5;strokeColor=#D0CEE2;fontColor=#1A1A1A;rounded=1;" vertex="1" parent="1">
          <mxGeometry x="12.5" y="1234.5" width="127.5" height="60" as="geometry" />
        </mxCell>
        <mxCell id="xa8BqAHAmbt2sgXt1oeg-69" value="YES" style="text;html=1;align=center;verticalAlign=middle;resizable=0;points=[];autosize=1;strokeColor=none;fillColor=none;labelBackgroundColor=none;fontColor=#1A1A1A;rounded=1;" vertex="1" parent="1">
          <mxGeometry x="-53.75" y="1238" width="50" height="30" as="geometry" />
        </mxCell>
        <mxCell id="xa8BqAHAmbt2sgXt1oeg-70" value="" style="endArrow=classic;html=1;rounded=1;exitX=0.612;exitY=0.011;exitDx=0;exitDy=0;exitPerimeter=0;entryX=0.049;entryY=0.847;entryDx=0;entryDy=0;entryPerimeter=0;labelBackgroundColor=none;strokeColor=#09555B;fontColor=default;" edge="1" parent="1" target="xa8BqAHAmbt2sgXt1oeg-46">
          <mxGeometry width="50" height="50" relative="1" as="geometry">
            <mxPoint x="-370.03" y="1234.5" as="sourcePoint" />
            <mxPoint x="-230" y="1139" as="targetPoint" />
            <Array as="points">
              <mxPoint x="-370" y="1139.34" />
            </Array>
          </mxGeometry>
        </mxCell>
        <mxCell id="xa8BqAHAmbt2sgXt1oeg-74" value="" style="edgeStyle=orthogonalEdgeStyle;rounded=1;orthogonalLoop=1;jettySize=auto;html=1;labelBackgroundColor=none;strokeColor=#09555B;fontColor=default;" edge="1" parent="1" source="xa8BqAHAmbt2sgXt1oeg-71" target="xa8BqAHAmbt2sgXt1oeg-73">
          <mxGeometry relative="1" as="geometry" />
        </mxCell>
        <mxCell id="xa8BqAHAmbt2sgXt1oeg-76" value="" style="edgeStyle=orthogonalEdgeStyle;rounded=1;orthogonalLoop=1;jettySize=auto;html=1;labelBackgroundColor=none;strokeColor=#09555B;fontColor=default;" edge="1" parent="1" source="xa8BqAHAmbt2sgXt1oeg-71" target="xa8BqAHAmbt2sgXt1oeg-75">
          <mxGeometry relative="1" as="geometry" />
        </mxCell>
        <mxCell id="xa8BqAHAmbt2sgXt1oeg-78" value="" style="edgeStyle=orthogonalEdgeStyle;rounded=1;orthogonalLoop=1;jettySize=auto;html=1;labelBackgroundColor=none;strokeColor=#09555B;fontColor=default;" edge="1" parent="1" source="xa8BqAHAmbt2sgXt1oeg-71" target="xa8BqAHAmbt2sgXt1oeg-77">
          <mxGeometry relative="1" as="geometry" />
        </mxCell>
        <mxCell id="xa8BqAHAmbt2sgXt1oeg-71" value="Hitung TOTAL dengan DISKON" style="rhombus;whiteSpace=wrap;html=1;labelBackgroundColor=none;fillColor=#FAD9D5;strokeColor=#D0CEE2;fontColor=#1A1A1A;rounded=1;" vertex="1" parent="1">
          <mxGeometry x="20" y="1360" width="113.75" height="100" as="geometry" />
        </mxCell>
        <mxCell id="xa8BqAHAmbt2sgXt1oeg-73" value="DISKON 20%" style="whiteSpace=wrap;html=1;labelBackgroundColor=none;fillColor=#FAD9D5;strokeColor=#D0CEE2;fontColor=#1A1A1A;rounded=1;" vertex="1" parent="1">
          <mxGeometry x="-150" y="1395" width="93.13" height="30" as="geometry" />
        </mxCell>
        <mxCell id="xa8BqAHAmbt2sgXt1oeg-75" value="DISKON 8%" style="whiteSpace=wrap;html=1;labelBackgroundColor=none;fillColor=#FAD9D5;strokeColor=#D0CEE2;fontColor=#1A1A1A;rounded=1;" vertex="1" parent="1">
          <mxGeometry x="27.810000000000002" y="1520" width="96.88" height="30" as="geometry" />
        </mxCell>
        <mxCell id="xa8BqAHAmbt2sgXt1oeg-77" value="BONUS KITCHEN SET" style="whiteSpace=wrap;html=1;labelBackgroundColor=none;fillColor=#FAD9D5;strokeColor=#D0CEE2;fontColor=#1A1A1A;rounded=1;" vertex="1" parent="1">
          <mxGeometry x="210" y="1390" width="139.37" height="40" as="geometry" />
        </mxCell>
        <mxCell id="xa8BqAHAmbt2sgXt1oeg-79" value="" style="endArrow=classic;html=1;rounded=1;labelBackgroundColor=none;strokeColor=#09555B;fontColor=default;" edge="1" parent="1">
          <mxGeometry width="50" height="50" relative="1" as="geometry">
            <mxPoint x="101.25" y="1440" as="sourcePoint" />
            <mxPoint x="280" y="1560" as="targetPoint" />
            <Array as="points">
              <mxPoint x="280" y="1440" />
            </Array>
          </mxGeometry>
        </mxCell>
        <mxCell id="xa8BqAHAmbt2sgXt1oeg-80" value="TIDAK ADA DISKON" style="whiteSpace=wrap;html=1;labelBackgroundColor=none;fillColor=#FAD9D5;strokeColor=#D0CEE2;fontColor=#1A1A1A;rounded=1;" vertex="1" parent="1">
          <mxGeometry x="220.31" y="1560" width="118.76" height="30" as="geometry" />
        </mxCell>
        <mxCell id="xa8BqAHAmbt2sgXt1oeg-88" value="" style="edgeStyle=orthogonalEdgeStyle;rounded=1;orthogonalLoop=1;jettySize=auto;html=1;labelBackgroundColor=none;strokeColor=#09555B;fontColor=default;" edge="1" parent="1" source="xa8BqAHAmbt2sgXt1oeg-81" target="xa8BqAHAmbt2sgXt1oeg-87">
          <mxGeometry relative="1" as="geometry" />
        </mxCell>
        <mxCell id="xa8BqAHAmbt2sgXt1oeg-81" value="Output: TOTAL (total akhir)" style="shape=parallelogram;perimeter=parallelogramPerimeter;whiteSpace=wrap;html=1;fixedSize=1;labelBackgroundColor=none;fillColor=#FAD9D5;strokeColor=#D0CEE2;fontColor=#1A1A1A;rounded=1;" vertex="1" parent="1">
          <mxGeometry x="-15.620000000000001" y="1650" width="183.75" height="60" as="geometry" />
        </mxCell>
        <mxCell id="xa8BqAHAmbt2sgXt1oeg-82" value="" style="endArrow=classic;html=1;rounded=1;exitX=0.5;exitY=1;exitDx=0;exitDy=0;entryX=0;entryY=0.5;entryDx=0;entryDy=0;labelBackgroundColor=none;strokeColor=#09555B;fontColor=default;" edge="1" parent="1" source="xa8BqAHAmbt2sgXt1oeg-73" target="xa8BqAHAmbt2sgXt1oeg-81">
          <mxGeometry width="50" height="50" relative="1" as="geometry">
            <mxPoint x="-150" y="1520" as="sourcePoint" />
            <mxPoint x="-103" y="1680" as="targetPoint" />
            <Array as="points">
              <mxPoint x="-103" y="1680" />
            </Array>
          </mxGeometry>
        </mxCell>
        <mxCell id="xa8BqAHAmbt2sgXt1oeg-85" value="" style="endArrow=classic;html=1;rounded=1;exitX=0.5;exitY=1;exitDx=0;exitDy=0;entryX=0.5;entryY=0;entryDx=0;entryDy=0;labelBackgroundColor=none;strokeColor=#09555B;fontColor=default;" edge="1" parent="1" source="xa8BqAHAmbt2sgXt1oeg-75" target="xa8BqAHAmbt2sgXt1oeg-81">
          <mxGeometry width="50" height="50" relative="1" as="geometry">
            <mxPoint x="70" y="1620" as="sourcePoint" />
            <mxPoint x="120" y="1570" as="targetPoint" />
          </mxGeometry>
        </mxCell>
        <mxCell id="xa8BqAHAmbt2sgXt1oeg-86" value="" style="endArrow=classic;html=1;rounded=1;exitX=0.5;exitY=1;exitDx=0;exitDy=0;entryX=1;entryY=0.5;entryDx=0;entryDy=0;labelBackgroundColor=none;strokeColor=#09555B;fontColor=default;" edge="1" parent="1" source="xa8BqAHAmbt2sgXt1oeg-80" target="xa8BqAHAmbt2sgXt1oeg-81">
          <mxGeometry width="50" height="50" relative="1" as="geometry">
            <mxPoint x="269" y="1650" as="sourcePoint" />
            <mxPoint x="280" y="1680" as="targetPoint" />
            <Array as="points">
              <mxPoint x="280" y="1680" />
            </Array>
          </mxGeometry>
        </mxCell>
        <mxCell id="xa8BqAHAmbt2sgXt1oeg-91" value="" style="edgeStyle=orthogonalEdgeStyle;rounded=1;orthogonalLoop=1;jettySize=auto;html=1;labelBackgroundColor=none;strokeColor=#09555B;fontColor=default;" edge="1" parent="1" source="xa8BqAHAmbt2sgXt1oeg-87" target="xa8BqAHAmbt2sgXt1oeg-90">
          <mxGeometry relative="1" as="geometry" />
        </mxCell>
        <mxCell id="xa8BqAHAmbt2sgXt1oeg-87" value="LANJUT BELANJA?&amp;nbsp;&lt;div&gt;YA/TIDAK&lt;/div&gt;" style="rhombus;whiteSpace=wrap;html=1;labelBackgroundColor=none;fillColor=#FAD9D5;strokeColor=#D0CEE2;fontColor=#1A1A1A;rounded=1;" vertex="1" parent="1">
          <mxGeometry x="-3.75" y="1780" width="160" height="80" as="geometry" />
        </mxCell>
        <mxCell id="xa8BqAHAmbt2sgXt1oeg-89" value="NO" style="text;html=1;align=center;verticalAlign=middle;resizable=0;points=[];autosize=1;strokeColor=none;fillColor=none;labelBackgroundColor=none;fontColor=#1A1A1A;rounded=1;" vertex="1" parent="1">
          <mxGeometry x="240" y="1820" width="40" height="30" as="geometry" />
        </mxCell>
        <mxCell id="xa8BqAHAmbt2sgXt1oeg-90" value="END" style="ellipse;whiteSpace=wrap;html=1;labelBackgroundColor=none;fillColor=#FAD9D5;strokeColor=#D0CEE2;fontColor=#1A1A1A;rounded=1;" vertex="1" parent="1">
          <mxGeometry x="370" y="1780" width="120" height="80" as="geometry" />
        </mxCell>
        <mxCell id="xa8BqAHAmbt2sgXt1oeg-92" value="" style="endArrow=classic;html=1;rounded=1;exitX=0;exitY=0.5;exitDx=0;exitDy=0;entryX=0.084;entryY=0.001;entryDx=0;entryDy=0;entryPerimeter=0;labelBackgroundColor=none;strokeColor=#09555B;fontColor=default;" edge="1" parent="1" source="xa8BqAHAmbt2sgXt1oeg-87" target="xa8BqAHAmbt2sgXt1oeg-31">
          <mxGeometry width="50" height="50" relative="1" as="geometry">
            <mxPoint x="0.7699999999999818" y="1811.2399999999998" as="sourcePoint" />
            <mxPoint x="-100" y="630" as="targetPoint" />
            <Array as="points">
              <mxPoint x="-520" y="1820" />
              <mxPoint x="-520" y="638" />
            </Array>
          </mxGeometry>
        </mxCell>
        <mxCell id="xa8BqAHAmbt2sgXt1oeg-97" value="" style="edgeStyle=orthogonalEdgeStyle;rounded=1;orthogonalLoop=1;jettySize=auto;html=1;labelBackgroundColor=none;strokeColor=#09555B;fontColor=default;" edge="1" parent="1" source="xa8BqAHAmbt2sgXt1oeg-95" target="xa8BqAHAmbt2sgXt1oeg-13">
          <mxGeometry relative="1" as="geometry" />
        </mxCell>
        <mxCell id="xa8BqAHAmbt2sgXt1oeg-95" value="OUTPUT: LOGIN GAGAL" style="shape=parallelogram;perimeter=parallelogramPerimeter;whiteSpace=wrap;html=1;fixedSize=1;labelBackgroundColor=none;fillColor=#FAD9D5;strokeColor=#D0CEE2;fontColor=#1A1A1A;rounded=1;" vertex="1" parent="1">
          <mxGeometry x="590" y="495" width="170" height="60" as="geometry" />
        </mxCell>
        <mxCell id="xa8BqAHAmbt2sgXt1oeg-99" value="OPSI 3" style="text;html=1;align=center;verticalAlign=middle;resizable=0;points=[];autosize=1;strokeColor=none;fillColor=none;labelBackgroundColor=none;fontColor=#1A1A1A;rounded=1;" vertex="1" parent="1">
          <mxGeometry x="133.75" y="829" width="60" height="30" as="geometry" />
        </mxCell>
        <mxCell id="xa8BqAHAmbt2sgXt1oeg-100" value="OPSI 2" style="text;html=1;align=center;verticalAlign=middle;resizable=0;points=[];autosize=1;strokeColor=none;fillColor=none;labelBackgroundColor=none;fontColor=#1A1A1A;rounded=1;" vertex="1" parent="1">
          <mxGeometry x="-210" y="919" width="60" height="30" as="geometry" />
        </mxCell>
        <mxCell id="xa8BqAHAmbt2sgXt1oeg-101" value="OPSI 4" style="text;html=1;align=center;verticalAlign=middle;resizable=0;points=[];autosize=1;strokeColor=none;fillColor=none;labelBackgroundColor=none;fontColor=#1A1A1A;rounded=1;" vertex="1" parent="1">
          <mxGeometry x="294" y="770" width="60" height="30" as="geometry" />
        </mxCell>
        <mxCell id="xa8BqAHAmbt2sgXt1oeg-102" value="TOTAL &amp;gt;= 700000" style="text;html=1;align=center;verticalAlign=middle;resizable=0;points=[];autosize=1;strokeColor=none;fillColor=none;fontColor=#1A1A1A;" vertex="1" parent="1">
          <mxGeometry x="-170" y="1368" width="120" height="30" as="geometry" />
        </mxCell>
        <mxCell id="xa8BqAHAmbt2sgXt1oeg-103" value="TOTAL &amp;gt;= 150000 and TOTAL &amp;lt; 500000" style="text;html=1;align=center;verticalAlign=middle;resizable=0;points=[];autosize=1;strokeColor=none;fillColor=none;fontColor=#1A1A1A;" vertex="1" parent="1">
          <mxGeometry x="160.31" y="1360" width="240" height="30" as="geometry" />
        </mxCell>
        <mxCell id="xa8BqAHAmbt2sgXt1oeg-104" value="TOTAL &amp;gt;= 500000 and TOTAL &amp;lt; 700000" style="text;html=1;align=center;verticalAlign=middle;resizable=0;points=[];autosize=1;strokeColor=none;fillColor=none;fontColor=#1A1A1A;" vertex="1" parent="1">
          <mxGeometry x="-40" y="1480" width="240" height="30" as="geometry" />
        </mxCell>
        <mxCell id="xa8BqAHAmbt2sgXt1oeg-105" value="TOTAL &amp;lt; 150000" style="text;html=1;align=center;verticalAlign=middle;resizable=0;points=[];autosize=1;strokeColor=none;fillColor=none;fontColor=#1A1A1A;" vertex="1" parent="1">
          <mxGeometry x="280" y="1530" width="110" height="30" as="geometry" />
        </mxCell>
      </root>
    </mxGraphModel>
  </diagram>
</mxfile>
